<svg width="160" height="34" viewBox="0 0 160 34" fill="none" xmlns="http://www.w3.org/2000/svg">
<path fill-rule="evenodd" clip-rule="evenodd" d="M1.32031 33.9375H6.125C6.42188 33.9375 6.57031 33.8125 6.57031 33.5625L6.21875 16.2656L14.2574 33.3393C15.7769 33.2042 17.3559 33.0738 18.9912 32.9482L18.9453 0.914062C18.9453 0.664062 18.8516 0.539062 18.6641 0.539062H13.9062C13.625 0.539062 13.4844 0.664062 13.4844 0.914062L13.7188 19.4531L5.60938 0.539062H1.27344C1.02344 0.539062 0.898438 0.664062 0.898438 0.914062L0.945312 33.6094C0.945312 33.8281 1.07031 33.9375 1.32031 33.9375ZM29.9287 32.2291C27.9448 32.3402 26.017 32.4576 24.1495 32.5808L29.9 0.726562C29.9312 0.601562 30.0094 0.539062 30.1344 0.539062H37.0953C37.2203 0.539062 37.2984 0.601562 37.3297 0.726562L42.6894 31.6325C40.7599 31.7065 38.8672 31.7858 37.014 31.8703L36.7672 30.1875H30.2281L29.9287 32.2291ZM55.2602 31.2417C53.2839 31.2897 51.3354 31.343 49.4174 31.4015L49.4562 20.1094L43.0344 0.726562C43.0031 0.601562 43.05 0.539062 43.175 0.539062H48.5187C48.675 0.539062 48.7687 0.601562 48.8 0.726562L52.3391 13.6406L55.9484 0.726562C55.9797 0.601562 56.0578 0.539062 56.1828 0.539062H61.5734C61.6984 0.539062 61.7453 0.601562 61.7141 0.726562L55.2219 19.9219L55.2602 31.2417ZM81.2043 30.9375C81.1362 30.9375 81.0681 30.9375 81 30.9375C76.166 30.9375 71.4201 30.9686 66.79 31.0284C66.4179 30.5886 66.0806 30.113 65.7781 29.6016C64.9344 28.1328 64.5125 26.5234 64.5125 24.7734V22.5703C64.5125 22.3984 64.5906 22.3125 64.7469 22.3125H70.1375C70.2625 22.3125 70.325 22.3984 70.325 22.5703V24.7734C70.325 25.8203 70.6766 26.7266 71.3797 27.4922C72.0828 28.2422 72.9266 28.6172 73.9109 28.6172C74.9109 28.6172 75.7625 28.2344 76.4656 27.4688C77.1687 26.6875 77.5203 25.7891 77.5203 24.7734C77.5203 23.6016 76.7547 22.5781 75.2234 21.7031C74.9734 21.5469 74.6453 21.3594 74.2391 21.1406C73.8484 20.9062 73.3797 20.6406 72.8328 20.3438C72.2859 20.0469 71.7547 19.7578 71.2391 19.4766C70.7234 19.1797 70.2234 18.8984 69.7391 18.6328C67.9891 17.6016 66.6844 16.3125 65.825 14.7656C64.9812 13.2031 64.5594 11.4531 64.5594 9.51562C64.5594 7.73438 64.9969 6.125 65.8719 4.6875C66.7469 3.26562 67.8875 2.14062 69.2937 1.3125C70.7156 0.46875 72.2547 0.046875 73.9109 0.046875C75.6141 0.046875 77.1766 0.46875 78.5984 1.3125C80.0203 2.17188 81.1531 3.3125 81.9969 4.73438C82.8562 6.15625 83.2859 7.75 83.2859 9.51562V13.4531C83.2859 13.5781 83.2234 13.6406 83.0984 13.6406H77.7078C77.5828 13.6406 77.5203 13.5781 77.5203 13.4531L77.4734 9.51562C77.4734 8.39062 77.1219 7.47656 76.4187 6.77344C75.7156 6.07031 74.8797 5.71875 73.9109 5.71875C72.9266 5.71875 72.0828 6.09375 71.3797 6.84375C70.6766 7.59375 70.325 8.48438 70.325 9.51562C70.325 10.5625 70.5437 11.4375 70.9812 12.1406C71.4344 12.8438 72.2547 13.5156 73.4422 14.1562C73.5672 14.2188 73.8562 14.375 74.3094 14.625C74.7625 14.875 75.2625 15.1562 75.8094 15.4688C76.3719 15.7656 76.8797 16.0391 77.3328 16.2891C77.7859 16.5234 78.0594 16.6641 78.1531 16.7109C79.7469 17.6016 81.0047 18.6953 81.9266 19.9922C82.8641 21.2891 83.3328 22.8828 83.3328 24.7734C83.3328 26.6016 82.9109 28.2422 82.0672 29.6953C81.8056 30.1376 81.518 30.5517 81.2043 30.9375ZM94.8734 31.0241C92.9576 31 91.022 30.9807 89.0687 30.9666L89.1547 0.773438C89.1547 0.617188 89.2172 0.539062 89.3422 0.539062H94.7328C94.8578 0.539062 94.9203 0.617188 94.9203 0.773438V12.1406L102.444 0.726562C102.569 0.601562 102.686 0.539062 102.795 0.539062H108.303C108.444 0.539062 108.475 0.601562 108.397 0.726562L100.1 13.9688L108.243 31.2794C106.136 31.225 103.996 31.1767 101.826 31.1348L96.5375 19.6406L94.8734 22.2656V31.0241ZM128.039 32.0159C123.94 31.8115 119.63 31.6331 115.141 31.4832C114.6 30.9217 114.12 30.2945 113.703 29.6016C112.844 28.1328 112.414 26.5234 112.414 24.7734L112.461 9.5625C112.461 7.78125 112.891 6.17969 113.75 4.75781C114.594 3.32031 115.734 2.17188 117.172 1.3125C118.609 0.4375 120.172 0 121.859 0C123.609 0 125.18 0.429688 126.57 1.28906C127.977 2.14844 129.102 3.30469 129.945 4.75781C130.805 6.19531 131.234 7.79688 131.234 9.5625L131.281 24.7734C131.281 26.5234 130.859 28.125 130.016 29.5781C129.47 30.5103 128.811 31.3229 128.039 32.0159ZM143.128 32.9574C141.263 32.8137 139.324 32.6764 137.317 32.5459L137.408 0.726562C137.408 0.601562 137.47 0.539062 137.595 0.539062H143.455C143.58 0.539062 143.689 0.601562 143.783 0.726562L148.166 7.05469L152.525 0.726562C152.619 0.601562 152.736 0.539062 152.877 0.539062H158.759C158.9 0.539062 158.97 0.601562 158.97 0.726562L159.064 33.7031C159.064 33.8594 159.002 33.9375 158.877 33.9375H153.807C153.639 33.9191 153.471 33.9008 153.301 33.8826C153.268 33.8436 153.252 33.7837 153.252 33.7031L153.205 9.21094L148.166 16.5234L143.173 9.21094L143.128 32.9574ZM33.5563 9.79688L33.8375 11.5781L35.8063 25.0547H31.1891L33.3453 11.5781L33.5563 9.79688ZM124.391 27.4453C123.672 28.2266 122.828 28.6172 121.859 28.6172C120.875 28.6172 120.031 28.2422 119.328 27.4922C118.625 26.7266 118.273 25.8203 118.273 24.7734V9.5625C118.273 8.46875 118.625 7.5625 119.328 6.84375C120.031 6.125 120.875 5.76562 121.859 5.76562C122.891 5.76562 123.742 6.13281 124.414 6.86719C125.086 7.60156 125.422 8.5 125.422 9.5625L125.469 24.7734C125.469 25.7578 125.109 26.6484 124.391 27.4453Z" fill="#E60000"/>
</svg>
